# xmcd
#
# Track frame offsets: 
#        150
#        10852
#        27099
#        39391
#        53604
#        67792
#        78578
#        89854
#        101658
#        110503
#        121299
#        135499
#        144545
#        152498
#        165245
#        180853
#        194706
#        207584
#        220841
#        232912
#        258166
#        264630
#        266911
#        269903
#        304215
#
# Disc length: 4217 seconds
#
# Revision: 0
# Processed by: cddbd v1.5.2PL0 Copyright (c) Steve Scherf et al.
# Submitted via: ExactAudioCopy v1.0b3
#
DISCID=62107719
DTITLE=Johnny Horton - The Singing Fisherman [Disc 6]
DYEAR=2014
DGENRE=Country
TTITLE0=Ole Slew-Foot [1961]
TTITLE1=Miss Marcy (Billy Boy) [1960]
TTITLE2=Sleep-Eyed John [1960]
TTITLE3=The Mansion You Stole [1960]
TTITLE4=They'll Never Take Her Love From Me [1960]
TTITLE5=The Sinking Of The Reuben James [1960]
TTITLE6=Jim Bridger [1960]
TTITLE7=The Battle Of Bull Run [1960]
TTITLE8=Snow-Shoe Thompson [1960]
TTITLE9=John Paul Jones [1960]
TTITLE10=Comanche (The Brave Horse) [1960]
TTITLE11=Young Abe Lincoln [1960]
TTITLE12=O'Leary's Cow [1960]
TTITLE13=Johnny Freedom [1960]
TTITLE14=Go North! [1991]
TTITLE15=North To Alaska (First Version) [1991]
TTITLE16=North To Alaska [1960]
TTITLE17=I Just Don't Like This Kind Of Livin' [1964]
TTITLE18=Rock Island Line [1964]
TTITLE19=North To Alaska (Radio Promo) [2014]
TTITLE20=Ford Commercials [2014]
TTITLE21=Wray Ford Commercial [2014]
TTITLE22=Johnny Horton Talks [2014]
TTITLE23=Radio Interview (With KWKH Radio Bob Stoner) [2014]
TTITLE24=Rudy Thacker: The Ballad Of Johnny Horton [1961]
EXTD=
EXTT0=
EXTT1=
EXTT2=
EXTT3=
EXTT4=
EXTT5=
EXTT6=
EXTT7=
EXTT8=
EXTT9=
EXTT10=
EXTT11=
EXTT12=
EXTT13=
EXTT14=
EXTT15=
EXTT16=
EXTT17=
EXTT18=
EXTT19=
EXTT20=
EXTT21=
EXTT22=
EXTT23=
EXTT24=
PLAYORDER=
